# File created by Blade
# Date/Time:  Wed Jan 21 17:10:37 2015
# Frame Rate: 120.000 fps
#------------------------------------------------------
:FULLY-SPECIFIED
:DEGREES
1324
root 20.426103 35.776667 -23.000787 -180.685568 -0.030735 -181.714956
Spine -1.761517 2.310117 -5.360953
Head 4.796929 -2.572405 2.996883
LeftShoulder -5.247686 -19.766416 -5.901330
LeftArm 2.460984 42.871524 -60.560594
LeftForeArm 14.742212 -0.000000 11.067975
LeftHand 4.227379 -0.000000 -2.291019
LeftHandThumb1 -26.253704 0.000000 33.147579
RightShoulder -1.202505 -14.225408 8.956547
RightArm 33.067098 -27.304554 47.776361
RightForeArm -39.554706 0.000000 13.267613
RightHand 4.976969 -0.000000 4.901040
RightHandThumb1 -24.326973 -0.000000 -32.862282
LeftUpLeg -0.218817 8.496953 2.009349
LeftLeg 1.539155 -0.000000 -0.000000
LeftFoot -13.509709 27.210367 -11.092940
LeftToeBase 22.561930 -0.000000 -0.000000
RightUpLeg 5.463758 -9.667322 -0.969674
RightLeg 1.098337 -0.000000 -0.000000
RightFoot -22.156134 -22.796430 13.748998
RightToeBase 24.463399 -0.000000 -0.000000
1325
root 20.482837 35.794430 -22.981285 -180.385594 -0.465615 -181.989934
Spine -2.276348 1.832155 -5.652002
Head 4.754316 -2.489783 2.969155
LeftShoulder -5.308447 -20.076281 -5.698956
LeftArm 2.063369 41.319933 -59.459482
LeftForeArm 15.937694 -0.000000 9.946471
LeftHand 4.108662 0.000000 -3.693090
LeftHandThumb1 -26.253704 0.000000 33.147579
RightShoulder -1.435634 -14.526425 8.732089
RightArm 32.036339 -25.741603 47.827255
RightForeArm -39.199451 -0.000000 12.690908
RightHand 4.822297 -0.000000 5.693010
RightHandThumb1 -24.326973 -0.000000 -32.862282
LeftUpLeg -0.609879 8.006780 1.784432
LeftLeg 1.590515 -0.000000 -0.000000
LeftFoot -13.201191 27.017240 -10.912377
LeftToeBase 21.530568 -0.000000 -0.000000
RightUpLeg 5.317837 -9.840668 -1.096360
RightLeg 0.851231 -0.000000 -0.000000
RightFoot -22.098393 -23.010018 13.788774
RightToeBase 24.609315 -0.000000 -0.000000
1326
root 20.544646 35.814328 -22.963991 -180.094037 -0.903885 -182.245369
Spine -2.786384 1.390382 -5.958308
Head 4.753896 -2.466614 3.016996
LeftShoulder -5.257380 -20.287767 -5.458237
LeftArm 1.732201 39.760168 -58.256706
LeftForeArm 17.325833 0.000000 8.958647
LeftHand 3.861936 -0.000000 -4.891735
LeftHandThumb1 -26.253704 0.000000 33.147579
RightShoulder -1.770403 -14.765651 8.607590
RightArm 31.168978 -24.767951 47.308833
RightForeArm -38.170295 0.000000 12.393844
RightHand 4.056296 -0.000000 6.375191
RightHandThumb1 -24.326973 -0.000000 -32.862282
LeftUpLeg -0.980857 7.478140 1.599035
LeftLeg 1.660374 -0.000000 -0.000000
LeftFoot -12.928814 26.919490 -10.861925
LeftToeBase 20.058240 -0.000000 -0.000000
RightUpLeg 5.173267 -9.922651 -1.177345
RightLeg 0.630498 -0.000000 -0.000000
RightFoot -22.106488 -23.316464 13.786715
RightToeBase 24.399635 -0.000000 -0.000000
1327
root 20.607910 35.833371 -22.945982 -179.817203 -1.316976 -182.450915
Spine -3.244487 0.991856 -6.201398
Head 4.679964 -2.516393 3.039132
LeftShoulder -5.128938 -20.697180 -5.183465
LeftArm 1.194689 38.218021 -57.138899
LeftForeArm 18.942730 -0.000000 8.006514
LeftHand 3.842090 -0.000000 -5.851511
LeftHandThumb1 -26.253704 0.000000 33.147579
RightShoulder -1.984825 -14.813149 8.350161
RightArm 29.842648 -22.812486 47.674873
RightForeArm -38.463594 -0.000000 11.851645
RightHand 3.968765 -0.000000 7.211824
RightHandThumb1 -24.326973 -0.000000 -32.862282
LeftUpLeg -1.374852 6.931465 1.476384
LeftLeg 1.873693 -0.000000 -0.000000
LeftFoot -12.889641 26.785361 -10.828203
LeftToeBase 19.071915 -0.000000 -0.000000
RightUpLeg 5.040104 -10.025690 -1.212255
RightLeg 0.400332 -0.000000 -0.000000
RightFoot -22.077504 -23.606824 13.928110
RightToeBase 24.559777 -0.000000 -0.000000
